<?xml version="1.0" encoding="UTF-8"?>
<svg width="104px" height="24px" viewBox="0 0 104 24" version="1.1" xmlns="http://www.w3.org/2000/svg" xmlns:xlink="http://www.w3.org/1999/xlink">
    <!-- Generator: Sketch 62 (91390) - https://sketch.com -->
    <title>编组</title>
    <desc>Created with Sketch.</desc>
    <defs>
        <polygon id="path-1" points="0 23.8483721 103.945167 23.8483721 103.945167 0 0 0"></polygon>
    </defs>
    <g id="页面-1" stroke="none" stroke-width="1" fill="none" fill-rule="evenodd">
        <g id="Blog-3" transform="translate(-397.000000, -28.000000)">
            <g id="编组" transform="translate(397.000000, 28.000000)">
                <path d="M84.6774397,8.3976186 C81.5398931,8.3976186 78.9872323,10.9957581 78.9872323,14.1896186 C78.9872323,17.383107 81.5398931,19.9814326 84.6774397,19.9814326 C87.8149863,19.9814326 90.3674643,17.383107 90.3674643,14.1896186 C90.3674643,10.9957581 87.8149863,8.3976186 84.6774397,8.3976186 M84.6774397,23.8450605 C79.446916,23.8450605 75.1915065,19.5135256 75.1915065,14.1896186 C75.1915065,8.86533953 79.446916,4.53380465 84.6774397,4.53380465 C89.9079634,4.53380465 94.1633729,8.86533953 94.1633729,14.1896186 C94.1633729,19.5135256 89.9079634,23.8450605 84.6774397,23.8450605" id="Fill-1" fill="#009CFF"></path>
                <path d="M9.48611599,19.9813767 C6.34838664,19.9813767 3.79590861,17.3830512 3.79590861,14.1895628 C3.79590861,10.9958884 6.34838664,8.39756279 9.48611599,8.39756279 C12.6236626,8.39756279 15.1761406,10.9958884 15.1761406,14.1895628 C15.1761406,17.3830512 12.6236626,19.9813767 9.48611599,19.9813767 M9.48611599,4.53393488 C7.35292794,4.53393488 5.38222847,5.25467907 3.79590861,6.46900465 L3.79590861,1.78156279 L0,1.78156279 L0,14.1895628 C0,19.5134698 4.25540949,23.8451907 9.48611599,23.8451907 C14.7166397,23.8451907 18.9720492,19.5134698 18.9720492,14.1895628 C18.9720492,8.86528372 14.7166397,4.53393488 9.48611599,4.53393488" id="Fill-3" fill="#009CFF"></path>
                <mask id="mask-2" fill="white">
                    <use xlink:href="#path-1"></use>
                </mask>
                <g id="Clip-6"></g>
                <polygon id="Fill-5" fill="#009CFF" mask="url(#mask-2)" points="21.5192267 23.6788837 25.3151353 23.6788837 25.3151353 1.7815814 21.5192267 1.7815814"></polygon>
                <path d="M36.4733483,23.8483721 C31.7103677,23.8483721 27.8354995,19.904186 27.8354995,15.056 L27.8354995,6.47032558 L31.6314081,6.47032558 L31.6314081,15.056 C31.6314081,17.7737674 33.8035276,19.9845581 36.4731656,19.9845581 C39.1429863,19.9845581 41.3151058,17.7737674 41.3151058,15.056 L41.3151058,6.47032558 L45.1110144,6.47032558 L45.1110144,15.056 C45.1110144,19.904186 41.2361462,23.8483721 36.4733483,23.8483721" id="Fill-7" fill="#009CFF" mask="url(#mask-2)"></path>
                <path d="M103.945222,10.3232186 L103.945222,6.45940465 L100.539176,6.45940465 L100.539176,1.78163721 L96.7432675,1.78163721 L96.7432675,17.5563349 C96.7432675,20.9323349 99.4414186,23.6789395 102.758086,23.6789395 L103.945222,23.6789395 L103.945222,19.8151256 L102.758086,19.8151256 C101.534761,19.8151256 100.539176,18.8019163 100.539176,17.5563349 L100.539176,10.3232186 L103.945222,10.3232186 Z" id="Fill-8" fill="#009CFF" mask="url(#mask-2)"></path>
                <path d="M72.8371037,2.16152558 C72.8371037,3.35538605 71.8864815,4.32301395 70.7136028,4.32301395 C69.5409069,4.32301395 68.5901019,3.35538605 68.5901019,2.16152558 C68.5901019,0.967665116 69.5409069,-0.000148837209 70.7136028,-0.000148837209 C71.8864815,-0.000148837209 72.8371037,0.967665116 72.8371037,2.16152558" id="Fill-9" fill="#009CFF" mask="url(#mask-2)"></path>
                <polygon id="Fill-10" fill="#009CFF" mask="url(#mask-2)" points="68.8156485 23.6788837 72.6115571 23.6788837 72.6115571 6.45488372 68.8156485 6.45488372"></polygon>
                <path d="M53.0773961,10.1126512 C54.1162995,9.0067907 55.5008337,8.39767442 56.9760253,8.39767442 C59.2086439,8.39767442 61.1566791,9.80809302 62.0086018,11.867814 L51.9423522,11.867814 C52.2093891,11.223907 52.5910271,10.6304186 53.0773961,10.1126512 L53.0773961,10.1126512 Z M61.5204049,17.4499535 C60.4990482,19.0387907 58.7595613,20.0315349 56.8316316,19.9794419 C54.3838847,19.9135814 52.3139374,18.132186 51.6839058,15.7316279 L60.5606439,15.7316279 L60.5606439,15.7312558 L64.746781,15.7312558 L64.7387388,15.7297674 L66.2356808,15.7223256 L66.2356808,13.7904186 C66.2356808,13.5245581 66.2245315,13.2990698 66.2004049,13.0810233 C65.6637722,8.20827907 61.6982467,4.53386047 56.9760253,4.53386047 C54.4548021,4.53386047 52.0957019,5.5667907 50.3337336,7.44232558 C48.5167494,9.37665116 47.581846,11.9331163 47.7008337,14.6406512 C47.9221764,19.6700465 51.8889814,23.7115349 56.7312872,23.8417674 C56.8118917,23.844 56.8921308,23.8451163 56.9723698,23.8451163 C59.1212766,23.8451163 61.2056633,23.0722791 62.8656422,21.6547907 C64.1699374,20.5405581 65.1514489,19.0812093 65.7153153,17.4499535 L61.5204049,17.4499535 Z" id="Fill-11" fill="#009CFF" mask="url(#mask-2)"></path>
            </g>
        </g>
    </g>
</svg>