<?xml version="1.0" encoding="utf-8"?>
<!-- Generator: Adobe Illustrator 25.2.1, SVG Export Plug-In . SVG Version: 6.00 Build 0)  -->
<svg version="1.1" id="Basic_Logo" xmlns="http://www.w3.org/2000/svg" xmlns:xlink="http://www.w3.org/1999/xlink" x="0px" y="0px"
	 viewBox="0 0 855.9 115" style="enable-background:new 0 0 855.9 115;" xml:space="preserve">
<style type="text/css">
	.st0{fill-rule:evenodd;clip-rule:evenodd;}
	.st1{fill-rule:evenodd;clip-rule:evenodd;fill:#0066AC;}
	.st2{fill:#0066AC;}
	.st3{fill:#585858;}
	.st4{fill:none;stroke:#000000;stroke-width:2.2392;}
</style>
<path class="st0" d="M31.34,112.37L59.9,84.72l-2.86-3.49c1.54,0.69,3.03,1.34,4.47,1.93L79.75,65.5c-3.26-1.03-7.39-2.17-12.39-3.4
	c-14.57-3.66-24.42-6.82-29.56-9.49c-5.14-2.67-9.56-6.26-13.22-10.72c-5.18-6.31-7.04-12.01-5.63-17.14
	c1.1-3.94,3.97-6.87,8.62-8.8L7.53,9.41L31.34,112.37L31.34,112.37z M88.46,57.07l16.43-15.91L60.34,26.64
	c-3.25-0.86-6.15-1.45-8.74-1.79c-4.24-0.55-7.97-0.46-11.16,0.27c-3.86,0.89-6.28,2.51-7.23,4.87c-0.96,2.36-0.27,4.95,2.03,7.76
	c3.29,4.01,12.44,7.82,27.44,11.44c1.21,0.28,2.09,0.48,2.71,0.62C75.24,52.18,82.93,54.59,88.46,57.07L88.46,57.07z"/>
<path class="st1" d="M69.49,96.4l-9.61-11.7l1.66-1.61c5.37,2.21,10.04,3.71,14.01,4.52c5.05,1.04,9.61,1.1,13.62,0.17
	c4.26-0.98,6.85-2.69,7.77-5.13c0.91-2.45,0.07-5.26-2.57-8.48c-2.14-2.61-4.88-4.73-8.18-6.34c-1.5-0.73-3.63-1.53-6.39-2.41
	L88.5,57c1.25,0.57,2.39,1.14,3.42,1.71c5.56,3.09,10.59,7.36,15.06,12.82c5.06,6.17,6.9,11.84,5.44,16.97
	c-1.43,5.13-5.86,8.55-13.29,10.27c-4.61,1.07-9.31,1.42-14.05,1.04C80.35,99.44,75.14,98.3,69.49,96.4L69.49,96.4z M27.98,15.61
	c1.27-0.49,2.67-0.92,4.19-1.27c3.31-0.77,6.94-1.07,10.92-0.9c3.96,0.17,8.34,0.8,13.18,1.94l10.6,12.92L27.98,15.61L27.98,15.61z"
	/>
<g>
	<path d="M77.95,4.43h-5.73v14.92H69.8V4.43h-5.72v-2.2h13.88V4.43z"/>
	<path d="M97.45,19.35h-2.43v-7.46h-9.21v7.46h-2.43V2.23h2.43v7.46h9.21V2.23h2.43V19.35z"/>
	<path d="M113.86,4.43h-7.01v5.2h6.77v2.2h-6.77v5.33h7.24v2.2h-9.67V2.23h9.44V4.43z"/>
</g>
<g>
	<g>
		<path d="M121.05,66.4c1.77-0.3,3-0.75,3.67-1.34c0.58-0.6,0.87-1.58,0.87-2.94V7.62c0-1.36-0.29-2.37-0.87-3.04
			c-0.67-0.56-1.89-0.98-3.67-1.25v-1.4c0.96,0,2.23,0.07,3.81,0.2c1.46,0.3,3.02,0.45,4.67,0.45c3.56-0.13,6.37-0.35,8.44-0.65v1.4
			c-1.68,0.27-2.87,0.68-3.57,1.25c-0.68,0.66-1.01,1.68-1.01,3.04v54.49c0,1.36,0.34,2.34,1.01,2.94c0.71,0.6,1.9,1.05,3.57,1.34
			v1.4c-0.83-0.07-2.04-0.2-3.64-0.4c-1.57-0.13-3.17-0.2-4.8-0.2c-3.56,0.13-6.38,0.33-8.48,0.6V66.4z"/>
	</g>
	<g>
		<path d="M354.2,7.62c0-1.36-0.3-2.37-0.91-3.04c-0.7-0.56-1.98-0.98-3.83-1.25v-1.4c2.69,0.23,5.35,0.45,7.97,0.65
			c2.44-0.13,4.75-0.35,6.92-0.65l31.89,47.62h0.23V12.6c0-3.39-0.45-5.69-1.34-6.92c-1.02-1.23-2.79-2.01-5.32-2.34v-1.4
			c2.61,0.23,5.23,0.45,7.84,0.65c1.61,0,3.21-0.15,4.79-0.45c1.49-0.13,2.98-0.2,4.47-0.2v1.4c-1.8,0.27-3.1,0.68-3.89,1.25
			c-0.7,0.66-1.04,1.68-1.04,3.04v60.17h-5.55l-36.54-54.7h-0.18v43.98c-0.06,3.29,0.41,5.54,1.43,6.73
			c0.99,1.3,2.71,2.16,5.18,2.59v1.4c-2.58-0.2-5.17-0.4-7.75-0.6c-1.47,0-2.94,0.07-4.42,0.2c-1.53,0.2-3.1,0.33-4.69,0.4v-1.4
			c1.85-0.3,3.13-0.75,3.83-1.34c0.61-0.6,0.91-1.58,0.91-2.94V7.62z"/>
	</g>
	<g>
		<path d="M325.71,66.4c1.87-0.3,3.16-0.75,3.87-1.34c0.61-0.6,0.92-1.58,0.92-2.94V7.62c0-1.36-0.31-2.37-0.92-3.04
			c-0.71-0.56-2-0.98-3.87-1.25v-1.4c1.04,0,2.42,0.07,4.12,0.2c1.58,0.3,3.27,0.45,5.06,0.45c3.85-0.13,6.9-0.35,9.14-0.65v1.4
			c-1.76,0.27-3.01,0.68-3.75,1.25c-0.71,0.66-1.07,1.68-1.07,3.04v54.49c0,1.36,0.35,2.34,1.07,2.94c0.74,0.6,1.99,1.05,3.75,1.34
			v1.4c-0.9-0.07-2.21-0.2-3.94-0.4c-1.7-0.13-3.44-0.2-5.2-0.2c-3.85,0.13-6.91,0.33-9.18,0.6V66.4z"/>
	</g>
	<g>
		<path d="M312.28,61.18c-2.89,2.43-5.79,4.32-8.68,5.67c-2.92,1.35-6.25,2.02-9.97,2.02c-7.27-0.07-13.59-3.02-18.96-8.87
			c-5.58-5.78-8.43-13.78-8.55-24.01c0.06-6.38,1.23-11.84,3.52-16.39c2.17-4.52,4.96-8.12,8.37-10.81
			c3.43-2.79,6.99-4.83,10.66-6.13c3.67-1.16,6.94-1.74,9.82-1.74c6.19,0,12.36,1.46,18.49,4.38c0,4.94,0.22,9.93,0.67,14.98h-1.83
			c-1.17-4.7-3.6-8.17-7.3-10.44c-3.73-2.16-7.69-3.25-11.87-3.25c-2.06,0-4.38,0.43-6.94,1.3c-2.57,0.9-5.08,2.4-7.53,4.5
			c-2.39,2.13-4.35,4.93-5.87,8.39c-1.67,3.5-2.51,7.79-2.51,12.89c0.15,7.53,2.47,14.15,6.96,19.88c2.11,2.63,4.46,4.81,7.05,6.54
			c2.59,1.7,5.27,2.55,8.04,2.55c3.43,0.07,6.85-0.9,10.26-2.9c1.6-1,2.86-2.32,3.8-3.96c0.99-1.6,1.49-3.56,1.49-5.86v-5.16
			c0-1.77-0.33-3.09-1-3.95c-0.7-0.83-2.35-1.32-4.96-1.45v-1.39c3.62,0.43,7.22,0.65,10.79,0.65c2.45,0,4.91-0.22,7.36-0.65v1.39
			c-1.58,0.07-2.71,0.43-3.38,1.1c-0.76,0.63-1.14,1.89-1.14,3.79v23.56h-4.49L312.28,61.18z"/>
	</g>
	<g>
		<path d="M455.55,61.18c-2.9,2.43-5.79,4.32-8.68,5.67c-2.92,1.35-6.25,2.02-9.97,2.02c-7.27-0.07-13.59-3.02-18.96-8.87
			c-5.58-5.78-8.43-13.78-8.55-24.01c0.06-6.38,1.23-11.84,3.52-16.39c2.17-4.52,4.96-8.12,8.37-10.81
			c3.43-2.79,6.99-4.83,10.66-6.13c3.67-1.16,6.94-1.74,9.82-1.74c6.2,0,12.36,1.46,18.5,4.38c0,4.94,0.22,9.93,0.67,14.98h-1.83
			c-1.17-4.7-3.6-8.18-7.3-10.44c-3.73-2.16-7.69-3.25-11.87-3.25c-2.06,0-4.38,0.43-6.94,1.3c-2.57,0.9-5.08,2.4-7.53,4.5
			c-2.39,2.13-4.35,4.93-5.87,8.39c-1.67,3.5-2.51,7.79-2.51,12.89c0.15,7.53,2.47,14.15,6.96,19.88c2.11,2.63,4.46,4.81,7.05,6.54
			c2.59,1.7,5.27,2.55,8.04,2.55c3.43,0.07,6.85-0.9,10.26-2.9c1.59-1,2.86-2.32,3.79-3.96c1-1.6,1.49-3.56,1.49-5.86v-5.16
			c0-1.77-0.33-3.09-1-3.95c-0.7-0.83-2.35-1.32-4.96-1.45v-1.39c3.63,0.43,7.22,0.65,10.79,0.65c2.45,0,4.91-0.22,7.36-0.65v1.39
			c-1.58,0.07-2.71,0.43-3.38,1.1c-0.76,0.63-1.14,1.89-1.14,3.79v23.56h-4.49L455.55,61.18z"/>
	</g>
	<g>
		<path d="M217.02,66.4c1.45,0,2.53-0.48,3.24-1.44c0.68-0.9,1.43-2.67,2.26-5.33l15.52-49.76c0.31-1.03,0.5-2.14,0.55-3.34
			c0-1.23-0.21-2.03-0.64-2.39c-0.23-0.2-0.51-0.36-0.85-0.5c-0.34-0.13-0.78-0.23-1.32-0.3v-1.4c2.22,0.43,4.43,0.65,6.65,0.65
			c1.51,0,3.01-0.22,4.52-0.65c0.43,2.79,1.42,6.54,2.98,11.25l14.75,44.95c1.05,3.19,1.93,5.29,2.64,6.32
			c0.68,1,1.75,1.64,3.2,1.94v1.4c-2.22-0.2-4.45-0.4-6.69-0.6c-1.65,0-3.31,0.07-4.99,0.2c-1.76,0.2-3.51,0.33-5.24,0.4v-1.4
			c1.56-0.23,2.64-0.58,3.24-1.04c0.51-0.4,0.77-1.08,0.77-2.04c0-0.79-0.14-1.87-0.43-3.23c-0.34-1.29-0.98-3.26-1.92-5.91
			l-3.58-11.18h-18.76L228.62,57c-0.91,2.92-1.36,5.19-1.36,6.81c0,0.76,0.31,1.34,0.94,1.74c0.6,0.43,1.79,0.71,3.58,0.84v1.4
			c-2.27-0.2-4.58-0.4-6.91-0.6c-2.62,0.13-5.23,0.33-7.84,0.6V66.4z M250.22,37.9l-7.93-25.38h-0.17l-7.97,25.38H250.22z"/>
	</g>
	<g>
		<path d="M158.15,12.22h-0.17l-1.48,41.41c-0.23,3.95-0.34,6.93-0.34,8.92c0,1,0.44,1.94,1.33,2.84c0.88,0.9,2.17,1.35,3.85,1.35
			v1.4c-2.67-0.2-5.25-0.4-7.75-0.6c-1.2,0-2.39,0.07-3.58,0.2c-1.25,0.2-2.6,0.33-4.04,0.4v-1.4c3.02-0.13,4.62-1.36,4.79-3.69
			l2.16-49.76c0.06-2.95,0.08-4.93,0.08-5.93c0-2.26-1.24-3.49-3.73-3.69v-1.4c1.4,0,2.72,0.07,3.96,0.2
			c1.17,0.3,2.15,0.45,2.92,0.45c1.8,0,3.3-0.15,4.47-0.45c1.23-0.13,2.32-0.2,3.27-0.2l17.15,49.86L197.5,2.28
			c2.12,0.23,4.21,0.45,6.28,0.65c2.29-0.13,4.54-0.35,6.75-0.65v1.4c-2.52-0.07-3.82,1.2-3.91,3.79c0,0.4,0.08,1.28,0.23,2.64
			c0,1.36,0.06,3.14,0.18,5.33l2.54,45.28c0.18,2.09,0.61,3.59,1.3,4.48c0.66,0.96,1.84,1.48,3.54,1.54v1.4
			c-2.6-0.2-5.21-0.4-7.81-0.6c-1.52,0-3.06,0.07-4.61,0.2c-1.58,0.2-3.13,0.33-4.65,0.4v-1.4c1.93-0.3,3.24-0.75,3.94-1.35
			c0.59-0.47,0.88-1.35,0.88-2.64c-0.09-6.08-0.28-12.45-0.58-19.1l-1.83-30.22h-0.18l-18.15,54.7h-3.62L158.15,12.22z"/>
	</g>
</g>
<g>
	<g>
		<path class="st2" d="M672.26,3.47c13.53,0.28,20.43,6.4,20.7,18.35c-0.06,7.71-3.59,13.03-10.57,15.97
			c2.78,1.94,5.26,4.4,7.44,7.4c2.18,3.06,4.4,6.65,6.67,10.77c2.06,3.43,4.94,7.74,8.67,12.92h-10.85L686,55.44
			c-4.01-6.52-7.25-10.71-9.72-12.55c-2.47-1.65-4.82-2.45-7.05-2.39h-3.8v28.37h-9.36V3.47H672.26z M665.42,32.1h5.81
			c2.46,0,4.53-0.33,6.21-0.99c1.59-0.63,2.85-1.42,3.78-2.39c1.78-2.06,2.57-4.51,2.38-7.32c0-3.13-0.96-5.55-2.88-7.27
			c-1.95-1.75-5.12-2.63-9.5-2.63h-5.81V32.1z"/>
	</g>
	<g>
		<path class="st2" d="M641.52,43.32c0,17.27-9.41,26.12-28.24,26.56c-6.98,0-13.09-2.07-18.31-6.23
			c-5.34-4.09-8.08-10.53-8.2-19.33V3.64h9.36v38.67c0,3.56,0.3,6.31,0.9,8.24c0.57,1.97,1.53,3.68,2.88,5.15
			c3.6,3.71,8.12,5.57,13.56,5.57c6.93-0.12,11.84-1.89,14.73-5.29c1.68-1.72,2.76-3.76,3.24-6.13c0.48-2.34,0.72-5.06,0.72-8.15
			V3.64h9.36V43.32z"/>
	</g>
	<g>
		<path class="st2" d="M510.91,36.54c0.06-9.39,3.19-17.28,9.39-23.68c6.08-6.46,14.28-9.75,24.62-9.88
			c10.58,0.13,18.91,3.42,24.99,9.88c5.99,6.4,9.01,14.29,9.07,23.68c-0.06,9.05-3.05,16.8-8.98,23.26
			c-6.02,6.65-14.44,10.06-25.26,10.25c-10.4-0.19-18.61-3.6-24.63-10.25C514.04,53.34,510.97,45.59,510.91,36.54z M520.26,36.54
			c0.06,7.21,2.42,13.13,7.08,17.74c4.51,4.71,10.37,7.1,17.57,7.16c7.3-0.06,13.21-2.45,17.75-7.16
			c4.57-4.62,6.89-10.53,6.95-17.75c-0.06-7.37-2.38-13.34-6.95-17.93c-4.54-4.62-10.46-6.96-17.75-7.02
			c-7.2,0.06-13.06,2.4-17.57,7.02C522.69,23.2,520.32,29.17,520.26,36.54z"/>
	</g>
	<g>
		<path class="st2" d="M504.35,17.38c-2.67-2.62-5.27-4.45-7.81-5.48c-2.54-0.9-4.9-1.36-7.08-1.36c-2.91,0-5.28,0.7-7.13,2.11
			c-1.94,1.4-2.91,3.29-2.91,5.66c0,1.53,0.44,2.87,1.32,4.03c0.76,1.22,1.79,2.34,3.09,3.37c1.3,1,2.78,1.98,4.45,2.95
			c1.6,0.97,3.24,2,4.9,3.09c3.6,1.9,6.76,4.35,9.48,7.35c2.72,3.09,4.11,7.22,4.18,12.41c-0.06,5.15-1.72,9.36-4.99,12.64
			c-3.3,3.31-7.54,4.99-12.74,5.06c-6.68,0-12.59-2.01-17.73-6.03V51.28c4.78,6.28,10.36,9.44,16.75,9.51
			c3.51-0.06,6.14-0.98,7.9-2.76c1.6-1.72,2.4-3.54,2.4-5.48c-0.06-3.37-1.45-6.18-4.18-8.43c-2.72-2.25-5.88-4.38-9.48-6.41
			c-3.6-2.12-6.73-4.59-9.39-7.4c-2.85-2.81-4.3-6.38-4.36-10.72c0.06-5.43,1.83-9.72,5.31-12.87c3.45-3,8.09-4.53,13.92-4.59
			c4.9,0,9.6,1.53,14.1,4.58V17.38z"/>
	</g>
	<g>
		<path class="st2" d="M805.31,11.71h-26.86v19.84h25.95v8.4h-25.95V60.3h27.72v8.41h-37.08V3.3h36.22V11.71z"/>
	</g>
	<g>
		<path class="st2" d="M759.75,17.91c-7.47-4.56-14.74-6.84-21.82-6.84c-7.37,0.06-13.37,2.4-17.99,7.02
			c-4.78,4.65-7.19,10.66-7.25,18.03c0.06,7.4,2.45,13.34,7.17,17.84c4.56,4.59,10.71,6.91,18.45,6.98c7.38,0,14.75-2.47,22.13-7.4
			v10.3c-3.05,1.65-6.39,2.99-10.02,4.02c-3.65,1.06-7.96,1.62-12.92,1.68c-11.82-0.25-20.47-3.98-25.97-11.19
			c-5.53-6.96-8.27-14.09-8.2-21.39c0.06-10.14,3.37-18.38,9.93-24.71c6.31-6.4,14.58-9.66,24.79-9.78c6.19,0,13.43,1.79,21.71,5.37
			V17.91z"/>
	</g>
</g>
<g>
	<path class="st3" d="M172.57,90.03h-7.53v-2.72h18.32v2.72h-7.56v22.03h-3.23V90.03z"/>
	<path class="st3" d="M201.11,100.46h-9.58v8.92h10.72v2.68h-13.95V87.31h13.4v2.68h-10.17v7.82h9.58V100.46z"/>
	<path class="st3" d="M225.86,111.29c-1.14,0.59-3.53,1.18-6.54,1.18c-6.98,0-12.19-4.41-12.19-12.56c0-7.79,5.25-13,12.93-13
		c3.05,0,5.03,0.66,5.88,1.1l-0.81,2.61c-1.18-0.59-2.9-1.03-4.96-1.03c-5.8,0-9.66,3.71-9.66,10.21c0,6.09,3.49,9.95,9.47,9.95
		c1.98,0,3.97-0.4,5.25-1.03L225.86,111.29z"/>
	<path class="st3" d="M235.29,87.31v10.36h11.97V87.31h3.23v24.75h-3.23v-11.6h-11.97v11.6h-3.23V87.31H235.29z"/>
	<path class="st3" d="M258.24,112.06V87.31h3.53l7.89,12.52c1.8,2.9,3.27,5.47,4.41,8.04l0.11-0.04c-0.29-3.31-0.37-6.32-0.37-10.13
		V87.31h3.01v24.75h-3.23l-7.86-12.56c-1.73-2.75-3.38-5.58-4.59-8.26l-0.11,0.04c0.18,3.12,0.22,6.1,0.22,10.21v10.57H258.24z"/>
	<path class="st3" d="M294.26,112.46c-6.57,0-11.13-5.07-11.13-12.56c0-7.86,4.85-13,11.46-13c6.79,0,11.16,5.18,11.16,12.52
		c0,8.48-5.18,13.04-11.46,13.04H294.26z M294.41,109.86c5.07,0,7.93-4.66,7.93-10.28c0-4.92-2.57-10.06-7.89-10.06
		c-5.32,0-7.97,4.96-7.97,10.32c0,5.21,2.86,10.02,7.89,10.02H294.41z"/>
	<path class="st3" d="M312.07,87.31h3.23v22.07h10.58v2.68h-13.81V87.31z"/>
	<path class="st3" d="M339.87,112.46c-6.57,0-11.13-5.07-11.13-12.56c0-7.86,4.85-13,11.46-13c6.79,0,11.16,5.18,11.16,12.52
		c0,8.48-5.18,13.04-11.46,13.04H339.87z M340.02,109.86c5.07,0,7.93-4.66,7.93-10.28c0-4.92-2.57-10.06-7.89-10.06
		c-5.32,0-7.97,4.96-7.97,10.32c0,5.21,2.86,10.02,7.9,10.02H340.02z"/>
	<path class="st3" d="M376.59,110.96c-1.43,0.55-4.3,1.36-7.64,1.36c-3.75,0-6.83-0.95-9.25-3.27c-2.13-2.06-3.45-5.36-3.45-9.22
		c0-7.38,5.1-12.78,13.4-12.78c2.86,0,5.14,0.62,6.21,1.14l-0.81,2.61c-1.32-0.63-2.97-1.07-5.47-1.07c-6.02,0-9.95,3.75-9.95,9.95
		c0,6.28,3.75,9.99,9.55,9.99c2.09,0,3.53-0.29,4.26-0.66v-7.38h-4.99v-2.57h8.15V110.96z"/>
	<path class="st3" d="M389.15,112.06v-10.5l-7.86-14.25h3.67l3.49,6.83c0.92,1.87,1.69,3.38,2.46,5.1h0.07
		c0.66-1.62,1.54-3.23,2.5-5.1l3.56-6.83h3.6l-8.26,14.21v10.54H389.15z"/>
	<path class="st3" d="M415.7,87.68c1.39-0.33,3.64-0.55,5.84-0.55c3.19,0,5.25,0.55,6.76,1.8c1.29,0.95,2.09,2.42,2.09,4.37
		c0,2.42-1.62,4.52-4.19,5.43v0.11c2.35,0.55,5.1,2.5,5.1,6.17c0,2.13-0.84,3.75-2.13,4.96c-1.69,1.58-4.48,2.31-8.52,2.31
		c-2.2,0-3.89-0.15-4.96-0.29V87.68z M418.89,97.81h2.9c3.34,0,5.33-1.8,5.33-4.19c0-2.86-2.17-4.04-5.4-4.04
		c-1.47,0-2.31,0.11-2.83,0.22V97.81z M418.89,109.64c0.66,0.11,1.54,0.15,2.68,0.15c3.31,0,6.35-1.21,6.35-4.81
		c0-3.34-2.9-4.78-6.39-4.78h-2.65V109.64z"/>
	<path class="st3" d="M441.77,104.27l-2.57,7.79h-3.3l8.41-24.75h3.85l8.45,24.75h-3.41l-2.65-7.79H441.77z M449.88,101.78
		l-2.46-7.12c-0.51-1.62-0.88-3.08-1.25-4.52h-0.11c-0.33,1.43-0.73,2.97-1.21,4.48l-2.42,7.16H449.88z"/>
	<path class="st3" d="M462.04,108.17c1.43,0.92,3.49,1.62,5.69,1.62c3.27,0,5.18-1.69,5.18-4.22c0-2.28-1.32-3.64-4.66-4.88
		c-4.04-1.47-6.54-3.6-6.54-7.05c0-3.85,3.2-6.72,8-6.72c2.5,0,4.37,0.59,5.43,1.21l-0.88,2.61c-0.77-0.48-2.42-1.18-4.66-1.18
		c-3.38,0-4.66,2.02-4.66,3.71c0,2.31,1.51,3.45,4.92,4.77c4.19,1.65,6.28,3.64,6.28,7.27c0,3.82-2.79,7.16-8.63,7.16
		c-2.39,0-4.99-0.74-6.32-1.62L462.04,108.17z"/>
	<path class="st3" d="M495.52,100.46h-9.58v8.92h10.72v2.68h-13.95V87.31h13.4v2.68h-10.17v7.82h9.58V100.46z"/>
	<path class="st3" d="M502.98,87.64c1.98-0.29,4.3-0.51,6.83-0.51c4.59,0,7.86,1.03,10.02,3.05c2.24,2.02,3.53,4.92,3.53,8.92
		c0,4.04-1.29,7.35-3.56,9.62c-2.35,2.31-6.17,3.56-10.98,3.56c-2.31,0-4.18-0.07-5.84-0.29V87.64z M506.21,109.56
		c0.81,0.15,1.98,0.15,3.23,0.15c6.83,0.04,10.54-3.82,10.54-10.5c0.04-5.91-3.27-9.55-10.02-9.55c-1.65,0-2.9,0.15-3.75,0.33
		V109.56z"/>
	<path class="st3" d="M549.32,112.46c-6.57,0-11.12-5.07-11.12-12.56c0-7.86,4.85-13,11.46-13c6.79,0,11.16,5.18,11.16,12.52
		c0,8.48-5.18,13.04-11.46,13.04H549.32z M549.46,109.86c5.07,0,7.93-4.66,7.93-10.28c0-4.92-2.57-10.06-7.9-10.06
		c-5.32,0-7.97,4.96-7.97,10.32c0,5.21,2.86,10.02,7.9,10.02H549.46z"/>
	<path class="st3" d="M567.16,112.06V87.31h3.53l7.89,12.52c1.8,2.9,3.27,5.47,4.41,8.04l0.11-0.04c-0.29-3.31-0.37-6.32-0.37-10.13
		V87.31h3.01v24.75h-3.23l-7.86-12.56c-1.73-2.75-3.38-5.58-4.59-8.26l-0.11,0.04c0.19,3.12,0.22,6.1,0.22,10.21v10.57H567.16z"/>
	<path class="st3" d="M603.11,108.17c1.43,0.92,3.49,1.62,5.69,1.62c3.27,0,5.18-1.69,5.18-4.22c0-2.28-1.32-3.64-4.66-4.88
		c-4.04-1.47-6.54-3.6-6.54-7.05c0-3.85,3.2-6.72,8.01-6.72c2.5,0,4.37,0.59,5.43,1.21l-0.88,2.61c-0.77-0.48-2.42-1.18-4.66-1.18
		c-3.38,0-4.66,2.02-4.66,3.71c0,2.31,1.51,3.45,4.92,4.77c4.19,1.65,6.28,3.64,6.28,7.27c0,3.82-2.79,7.16-8.63,7.16
		c-2.39,0-5-0.74-6.32-1.62L603.11,108.17z"/>
	<path class="st3" d="M628.52,90.03H621v-2.72h18.32v2.72h-7.56v22.03h-3.23V90.03z"/>
	<path class="st3" d="M645.52,104.27l-2.57,7.79h-3.3l8.41-24.75h3.85l8.45,24.75h-3.41l-2.64-7.79H645.52z M653.64,101.78
		l-2.46-7.12c-0.51-1.62-0.88-3.08-1.25-4.52h-0.11c-0.33,1.43-0.73,2.97-1.21,4.48l-2.42,7.16H653.64z"/>
	<path class="st3" d="M666.2,112.06V87.31h3.52l7.89,12.52c1.8,2.9,3.27,5.47,4.41,8.04l0.11-0.04c-0.29-3.31-0.37-6.32-0.37-10.13
		V87.31h3.01v24.75h-3.23l-7.86-12.56c-1.73-2.75-3.38-5.58-4.59-8.26l-0.11,0.04c0.18,3.12,0.22,6.1,0.22,10.21v10.57H666.2z"/>
	<path class="st3" d="M692.53,87.64c1.98-0.29,4.3-0.51,6.83-0.51c4.59,0,7.86,1.03,10.02,3.05c2.24,2.02,3.52,4.92,3.52,8.92
		c0,4.04-1.28,7.35-3.56,9.62c-2.35,2.31-6.17,3.56-10.98,3.56c-2.32,0-4.19-0.07-5.84-0.29V87.64z M695.76,109.56
		c0.81,0.15,1.98,0.15,3.23,0.15c6.83,0.04,10.54-3.82,10.54-10.5c0.04-5.91-3.27-9.55-10.02-9.55c-1.65,0-2.9,0.15-3.75,0.33
		V109.56z"/>
	<path class="st3" d="M723.22,104.27l-2.57,7.79h-3.31l8.41-24.75h3.85l8.44,24.75h-3.41l-2.64-7.79H723.22z M731.34,101.78
		l-2.46-7.12c-0.51-1.62-0.88-3.08-1.25-4.52h-0.11c-0.33,1.43-0.73,2.97-1.21,4.48l-2.42,7.16H731.34z"/>
	<path class="st3" d="M743.9,87.68c1.61-0.33,3.96-0.55,6.13-0.55c3.41,0,5.65,0.66,7.2,2.06c1.21,1.06,1.95,2.75,1.95,4.7
		c0,3.23-2.09,5.4-4.66,6.28v0.11c1.87,0.66,3.01,2.42,3.64,4.99c0.81,3.45,1.4,5.84,1.87,6.79h-3.3c-0.4-0.7-0.95-2.83-1.62-5.91
		c-0.73-3.41-2.09-4.7-4.99-4.81h-3.01v10.72h-3.19V87.68z M747.09,98.91h3.27c3.41,0,5.58-1.87,5.58-4.7c0-3.2-2.31-4.59-5.69-4.59
		c-1.54,0-2.61,0.15-3.16,0.29V98.91z"/>
	<path class="st3" d="M765.82,87.64c1.98-0.29,4.3-0.51,6.83-0.51c4.59,0,7.86,1.03,10.02,3.05c2.24,2.02,3.52,4.92,3.52,8.92
		c0,4.04-1.29,7.35-3.56,9.62c-2.35,2.31-6.17,3.56-10.98,3.56c-2.31,0-4.19-0.07-5.84-0.29V87.64z M769.05,109.56
		c0.81,0.15,1.98,0.15,3.23,0.15c6.83,0.04,10.54-3.82,10.54-10.5c0.04-5.91-3.27-9.55-10.02-9.55c-1.65,0-2.9,0.15-3.75,0.33
		V109.56z"/>
	<path class="st3" d="M792.11,108.17c1.43,0.92,3.49,1.62,5.69,1.62c3.27,0,5.18-1.69,5.18-4.22c0-2.28-1.32-3.64-4.66-4.88
		c-4.04-1.47-6.54-3.6-6.54-7.05c0-3.85,3.2-6.72,8.01-6.72c2.5,0,4.37,0.59,5.43,1.21l-0.88,2.61c-0.77-0.48-2.42-1.18-4.66-1.18
		c-3.38,0-4.67,2.02-4.67,3.71c0,2.31,1.51,3.45,4.92,4.77c4.19,1.65,6.28,3.64,6.28,7.27c0,3.82-2.79,7.16-8.63,7.16
		c-2.39,0-4.99-0.74-6.32-1.62L792.11,108.17z"/>
</g>
<circle class="st4" cx="831.98" cy="13.23" r="9.91"/>
<path d="M831.38,12.34c0.62,0,1.06-0.12,1.33-0.36c0.27-0.22,0.41-0.6,0.41-1.14c0-0.53-0.15-0.9-0.41-1.13
	c-0.27-0.22-0.72-0.34-1.33-0.34h-1.25v2.97H831.38 M830.12,14.39v4.37h-2.98V7.21h4.55c1.52,0,2.63,0.26,3.34,0.77
	c0.72,0.5,1.06,1.31,1.06,2.42c0,0.76-0.18,1.39-0.55,1.88c-0.37,0.48-0.92,0.85-1.67,1.07c0.41,0.1,0.77,0.31,1.1,0.64
	c0.32,0.32,0.65,0.82,0.97,1.49l1.62,3.27h-3.17l-1.41-2.87c-0.28-0.57-0.57-0.97-0.86-1.18c-0.29-0.21-0.68-0.32-1.16-0.32H830.12"
	/>
</svg>
