<?xml version="1.0" encoding="utf-8"?>
<!-- Generator: Adobe Illustrator 16.0.0, SVG Export Plug-In . SVG Version: 6.00 Build 0)  -->
<!DOCTYPE svg PUBLIC "-//W3C//DTD SVG 1.1//EN" "http://www.w3.org/Graphics/SVG/1.1/DTD/svg11.dtd">
<svg version="1.1" id="Ebene_1" xmlns="http://www.w3.org/2000/svg" xmlns:xlink="http://www.w3.org/1999/xlink" x="0px" y="0px"
	 width="500.61px" height="155.64px" viewBox="0 0 500.61 155.64" enable-background="new 0 0 500.61 155.64" xml:space="preserve">
<g>
	<polygon fill-rule="evenodd" clip-rule="evenodd" points="0,63.106 38.803,63.106 38.803,155.64 0,155.64 0,63.106 	"/>
	<polygon fill-rule="evenodd" clip-rule="evenodd" points="0,0 38.803,0 38.803,29.424 0,29.424 0,0 	"/>
	<path fill-rule="evenodd" clip-rule="evenodd" d="M89.543,29.425h62.854c26.609,0,48.183,21.565,48.183,48.184
		c0,26.611-21.573,48.184-48.183,48.184l-24.049,0.43V63.106H89.543v92.533c0,0,44.017,0,52.027,0
		c48.777,0,100.088-17.912,100.088-76.758C241.659,20.039,189.661,0,147.107,0c-27.719,0-57.564,0-57.564,0V29.425L89.543,29.425z"
		/>
	<polygon fill-rule="evenodd" clip-rule="evenodd" fill="#0098A5" points="461.805,0 500.609,0 500.609,29.424 461.805,29.424 
		461.805,0 	"/>
	<polygon fill-rule="evenodd" clip-rule="evenodd" fill="#0098A5" points="461.805,63.106 500.609,63.106 500.609,92.524 
		461.805,92.524 461.805,63.106 	"/>
	<polygon fill-rule="evenodd" clip-rule="evenodd" fill="#0098A5" points="461.805,126.222 500.609,126.222 500.609,155.64 
		461.805,155.64 461.805,126.222 	"/>
	<path fill-rule="evenodd" clip-rule="evenodd" d="M323.098,0c-26.826,0-51.1,20.711-51.1,46.266
		c0,25.554,25.553,46.267,51.1,46.267h43.857c9.299,0,16.84,7.541,16.84,16.84c0,9.309-7.541,16.85-16.84,16.85
		c0,0-95.689,0-94.408,0v29.418h99.496c27.072,0,51.1-20.715,51.1-46.268c0-25.555-25.547-46.266-51.1-46.266h-44.219
		c-9.309,0-16.85-7.541-16.85-16.841c0-9.301,7.541-16.841,16.85-16.841c0,0,84.939,0,83.66,0V0H323.098L323.098,0z"/>
</g>
</svg>
