<svg xmlns="http://www.w3.org/2000/svg" width="1536.09" height="205.98" viewBox="0 0 1536.09 205.98" class="t2il38i"><path d="M0,140l31.76-5.66a42.53,42.53,0,0,0,2.77,14.92,51.56,51.56,0,0,0,8.19,14.24,39.13,39.13,0,0,0,15,11,53.14,53.14,0,0,0,21.84,4.28q18.87,0,31.56-8.84t12.69-24.32a32.16,32.16,0,0,0-1.74-10.92,21.54,21.54,0,0,0-5.06-8.15,35.34,35.34,0,0,0-16.57-9.47,99.28,99.28,0,0,0-10.13-2.21q-4.78-.76-10.75-1.17Q5.71,106.56,5.7,58.32A53.68,53.68,0,0,1,10,36.67,48.39,48.39,0,0,1,21.45,20.23,68,68,0,0,1,38,9.06,83.43,83.43,0,0,1,57.44,2.4,99.48,99.48,0,0,1,77.83.32a88.81,88.81,0,0,1,26.57,4,82.09,82.09,0,0,1,23.16,11.31,56.92,56.92,0,0,1,16.6,18.45,53.36,53.36,0,0,1,6.9,24.5l-30.65,5A41.66,41.66,0,0,0,115.62,47a32.28,32.28,0,0,0-10-11.33,45.63,45.63,0,0,0-13-6.22,51.84,51.84,0,0,0-14.77-2.08,61.76,61.76,0,0,0-14.7,1.73,47.53,47.53,0,0,0-13,5.25,26.49,26.49,0,0,0-9.57,9.75,27.78,27.78,0,0,0-3.61,14.23q0,23.78,44.39,28.74Q89.48,88,95.68,89t14.41,3.11A90.21,90.21,0,0,1,124.3,97a72.4,72.4,0,0,1,12.19,7.11,42,42,0,0,1,10.16,10.09,49.34,49.34,0,0,1,6.48,13.68,59.64,59.64,0,0,1,2.51,17.83q0,26.9-21.09,43.56T79.63,205.87a104.47,104.47,0,0,1-29.68-4q-13.46-4-22.4-10.51a67.86,67.86,0,0,1-15.19-15.26,64.28,64.28,0,0,1-9.15-17.75A66.13,66.13,0,0,1,0,140Z" fill="#050505"></path><path d="M168.48,82.29V59.4h24.69V17.52h30.65V59.4h29.82V82.29H223.82v81.77q0,8.49,2.91,11.7t10.4,3.2q2.09,0,6.66-.27t7.07-.28V203.1l-18.3,1.11H229q-19.56,0-27.67-10.3T193.17,162V82.29Z" fill="#050505"></path><path d="M269.53,131.25q0-33.42,18.1-54.09t48.06-20.67q30,0,47.43,18.86t17.48,51.32a127.16,127.16,0,0,1-.56,13.6H301.29a42.8,42.8,0,0,0,10.47,27.79,32.08,32.08,0,0,0,25.31,11.6,40.28,40.28,0,0,0,22.28-6.39q9.93-6.37,15.06-20.24,3.33.83,28.16,8.1A63,63,0,0,1,394.94,177a70.82,70.82,0,0,1-12.69,14.22,57.23,57.23,0,0,1-19.43,10.66,79.79,79.79,0,0,1-25.75,4q-29.67,0-48.61-20.74T269.53,131.25Zm33.29-13.87h65.05q-.71-16.38-8.74-25.52t-23.44-9.15q-14.56,0-23.37,10.25A39.26,39.26,0,0,0,302.82,117.38Z" fill="#050505"></path><path d="M428.56,203.1V59.4h27.6l3,15.36q12.19-18.27,33.15-18.27a103.09,103.09,0,0,1,13.73.82V83.54H489.86q-15.67,0-23.16,10.42t-7.49,32V203.1Z" fill="#050505"></path><path d="M514.07,131.25q0-33.42,18.1-54.09t48.06-20.67q30,0,47.44,18.86t17.47,51.32a127.66,127.66,0,0,1-.55,13.6H545.83a42.76,42.76,0,0,0,10.48,27.79,32.08,32.08,0,0,0,25.31,11.6,40.24,40.24,0,0,0,22.27-6.39Q613.82,166.9,619,153q3.33.83,28.15,8.1A63,63,0,0,1,639.48,177a70.21,70.21,0,0,1-12.69,14.22,57.18,57.18,0,0,1-19.42,10.66,79.83,79.83,0,0,1-25.75,4q-29.68,0-48.62-20.74T514.07,131.25Zm33.29-13.87h65q-.69-16.38-8.74-25.52t-23.44-9.15q-14.57,0-23.37,10.25A39.31,39.31,0,0,0,547.36,117.38Z" fill="#050505"></path><path d="M664.5,131q0-33.6,18-54.08t49-20.47q30.68,0,48.8,20.61T798.34,131q0,33.66-18.05,54.25t-48.87,20.58q-31,0-49-20.58T664.5,131Zm30.65,0q0,23.21,9.69,35.91t26.58,12.71q16.76,0,26.51-12.71T767.69,131q0-22.92-9.83-35.63t-26.44-12.7q-16.89,0-26.58,12.63T695.15,131Z" fill="#050505"></path><path d="M822.14,203.1V3.09H853.9v173h91.68v27Z" fill="#050505"></path><path d="M955.79,160.17q0-17.73,15.74-30.26t42.79-12.53h36.89v-8.6a37.67,37.67,0,0,0-.62-7,23,23,0,0,0-2.71-6.94,21.14,21.14,0,0,0-5.34-6.24,26.41,26.41,0,0,0-8.94-4.23,47.72,47.72,0,0,0-13.32-1.66q-13.46,0-21,6.65t-8,19.42q-4.71-.82-14.91-2.84t-15.46-2.85Q962.44,87.7,971,77a50.41,50.41,0,0,1,21.15-15.61,76.42,76.42,0,0,1,28.09-4.92q30.51,0,46,14.84t15.53,44.25v50q0,6.63,1.74,9.95t6,3.31a20.18,20.18,0,0,0,7.35-1.1v25.09a73,73,0,0,1-18.17,2.23q-10.55,0-16.85-5.58a25.71,25.71,0,0,1-8.11-14.92q-6.11,7.67-17.55,14.29t-27.39,7q-24.69,0-38.91-12.5T955.79,160.17Zm31.2,0a18.42,18.42,0,0,0,6.18,14q6.17,5.73,19.2,5.73,17.76,0,28.3-9.88t10.54-22.6v-7.18h-33.84a49.7,49.7,0,0,0-15.26,2.07q-6.37,2.07-9.43,5.32a22,22,0,0,0-4.37,6.36A15.63,15.63,0,0,0,987,160.17Z" fill="#050505"></path><path d="M1115.78,203.1V3.09h30.65V76.74q5-7.21,16.82-13.73a51,51,0,0,1,25-6.52q28.62,0,45.13,20.47T1249.9,131q0,33.11-17.34,54t-44.3,20.86a49.62,49.62,0,0,1-25.57-6.76q-11.54-6.77-16.26-14.23l-2.49,18.22ZM1146.43,131q0,23.34,9.45,36t26.41,12.64q16.82,0,26.89-12.78T1219.25,131q0-22.92-10.07-35.63t-26.89-12.7q-17,0-26.41,12.56T1146.43,131Z" fill="#050505"></path><path d="M1266.21,160.46q29.82-5.67,30.1-5.66,4.29,24.85,31.9,24.86a43.73,43.73,0,0,0,7.14-.69,76,76,0,0,0,9.85-2.46,20.31,20.31,0,0,0,9.57-6.15,15.5,15.5,0,0,0,3.81-10.53,13.33,13.33,0,0,0-3-8.88,18,18,0,0,0-8.12-5.34,66.63,66.63,0,0,0-11.73-2.76l-13.94-2.08-14.62-2.19a58.92,58.92,0,0,1-13.86-3.8,46.43,46.43,0,0,1-11.72-6.88,28,28,0,0,1-8.12-11.46,45.11,45.11,0,0,1-3-17.16q0-18.14,16-30.46t39.11-12.33a89.79,89.79,0,0,1,22,2.56,63.68,63.68,0,0,1,18.52,7.83,43,43,0,0,1,13.79,14.05,51.21,51.21,0,0,1,7,20.42q-5.17.83-30.36,5.66-2.62-24.3-30.09-24.3-11,0-18.1,4.91t-7.15,11.71q0,8.17,6.87,11.64t21,4.85l18.7,2.93a80.64,80.64,0,0,1,16.25,4.41,44.76,44.76,0,0,1,13.49,7.64,33.17,33.17,0,0,1,8.46,11.83,41.38,41.38,0,0,1,3.29,17q0,22.08-17.13,34.16t-43.9,12.08q-26.78,0-42.79-12.5A50.11,50.11,0,0,1,1266.21,160.46Z" fill="#050505"></path><path d="M1500.29,71.59a29.59,29.59,0,0,0-.36-4.54l36.16-20.87-10.31-17.85L1489.61,49.2a28.71,28.71,0,0,0-7.87-4.56V2.91h-20.62V44.64a28.77,28.77,0,0,0-7.88,4.56l-36.17-20.87-10.31,17.85,36.16,20.87a28.87,28.87,0,0,0,0,9.09L1406.76,97l10.31,17.85L1453.24,94a28.77,28.77,0,0,0,7.88,4.56v41.73h20.62V98.55a28.71,28.71,0,0,0,7.87-4.56l36.17,20.87L1536.09,97l-36.16-20.87A29.62,29.62,0,0,0,1500.29,71.59Z" fill="#050505"></path><circle cx="1471.43" cy="71.59" r="13.05" fill="#d9ff42"></circle></svg>